<?xml version="1.0" encoding="UTF-8"?>
<svg version="1.1" viewBox="0 0 2048 1667" width="1280" height="1280" xmlns="http://www.w3.org/2000/svg">
<path transform="translate(0)" d="m0 0h2048v1667h-2048z" fill="#FBFBFB"/>
<path transform="translate(830,698)" d="m0 0h3l-1 18v278h81l11 6 7 7 4 6 3 10 4 27 4 24 3 24h55l8 2 12 6 8 9 4 8 2 8v8h-10l3 38h10l4 52 1 7 3 49v7h-21v21l-3 14-8 16-7 9-10 9-17 9-3 1 109 1h302l561 1 8 4 2 4-943 1h-785l-182-1 2-4 8-4 138-1h107l11 2h10l10-2 15-6 13-8 8-7 7-10 6-12 4-16v-15l-3-14-8-17-9-11-12-9-13-6-16-4h-14l-14 3-12 5-10 7-3 3h-2l-2 4-6 7-8 16-3 10h-52l-1-76h-126l-4-1-1-3 1-1 130-1v-66h-130l-1-4 13-1h118v-50l1-374h623l2-14z" fill="#6E0C06"/>
<path transform="translate(830,698)" d="m0 0h3l-1 18v278h81l11 6 7 7 4 6 3 10 4 27 4 24 3 24h55l8 2 12 6 8 9 4 8 2 8v8h-10l3 38h10l4 52 1 7 3 49v7h-21v21l-3 14-8 16-7 9-10 9-17 9-3 1 109 1h302l561 1 8 4 2 4-943 1h-785l-182-1 2-4 8-4 138-1h107l11 2h10l10-2 15-6 13-8 8-7 7-10 6-12 4-16v-15l-3-14-8-17-9-11-12-9-13-6-16-4h-14l-14 3-12 5-10 7-3 3h-2l-2 4-6 7-8 16-3 10h-52l-1-76h-126l-4-1-1-3 1-1 130-1 1-17h521l1-10 1-38v-425l1-4h-20v-1h119l2-14z" fill="#6D0B05"/>
<path transform="translate(1319,871)" d="m0 0h17l10 3 14 10 10 9 9 10 10 15 8 17 5 17 1 7v15l-4 16-5 13-6 12-1 4 3 1v2l5 2 22 12 24 14 26 15 21 13 2 2v177l-24 14-26 15-24 14-22 13-11 6-28 16-17 10-15-8-29-17-21-12-24-14-52-30-13-8v-176l9-6 22-13 25-14 9-6 26-15 10-6 8-4h2v-2l2-1-2-9-14-39-6-20-3-14v-18l4-12 4-6 8-7 18-11z" fill="#A36055"/>
<path transform="translate(1553,455)" d="m0 0 21 1 15 4 10 2-1 3-26 13-6 4-16 8h-2l-1 9 3 9 8-2v-2l19-9 5-2 19-10 5-1v-2l8-4 10-4 6-4 5-1h24l11 4 8 7 3 6v10l-6 8-14 10-21 12-20 11-16 8-15 8-10 4-23 11-8 4-18 8-7 3-9 4-12 6-13 5-16 7-8 4-13 5-11 5-13 5-2 2 6 4 5 7 6 15 2 9v24l-5 8-11 8-10 5-5 2-12 5-17 5-7 1h-20l-7-2-8 16-4 9-5 10-5 4-21 7-33 10-21 6-7-1-4-5v-7l14-38 7-18 8-24 2-4-26 8-30 7-7 1h-11l-47-4-48-3-8 15-6 9-9 4-24 5h-10l-4-2-5-7-1-3-1-24-27-2-3-5 1-7 7-6 3-1-1-11 10-4-1-9-6-16-11-30-10-26-13 2-5-13-4-11v-6l10-7 16-8 19-9h10l7 6 9 11 12 13 7 8 12 14 9 7 15 5 25 7 12 4 21 6 11 3 5 1 11-5 17-7 13-5 49-20 30-12h3l-4-4-8-5-1-6 16-8 25-11 16-7 6 1 23 8 6-1 82-32 56-21z" fill="#A31A25"/>
<path transform="translate(204,1193)" d="m0 0h521l1 1 1 97h35v-46h1v46h18l2-10 7-14 11-13 11-8 10-5 13-4 7-1h12l14 3 11 4 12 8 8 7 9 13 5 11 3 11 1 6v12l-3 15-5 11-6 10-6 7-10 8-16 8-11 4-7 1h-10l-16-2h-260l-107-1 4-3 17-9 12-11 9-14 5-15 1-5v-21l-1-1h-115l-2-1-4-13-8-15-7-8-12-9-13-6-16-4h-14l-14 3-12 5-10 7-3 3h-2l-2 4-6 7-8 16-3 10h-52l-1-76h-126l-4-1-1-3 1-1 130-1z" fill="#A21924"/>
<path transform="translate(840,994)" d="m0 0h73l11 6 7 7 4 6 3 10 4 27 4 24 3 24h55l8 2 12 6 8 9 4 8 2 8v8h-10l3 38h10l4 52 1 7 3 49v7h-21v21l-3 14-8 16-7 9-10 9-17 9-3 1 109 1h302l561 1 8 4 2 4-943 1h-785l-182-1 2-4 8-4 138-1h107l11 2h10l10-2 15-6 13-8 8-7 7-10 6-12 4-16v-21h116l2 2v21l-4 15-6 12-8 10-10 9-19 10 105 1h264l12 2h10l10-2 15-6 13-8 7-6 8-11 6-12 3-11 1-7v-12l-1-8 5 1h62l-2-13-3-43-3-42-4-41-1-23-3-10-6-10-8-7-10-3-59-1-2-4-12-73-4-11-6-8-8-6-11-2z" fill="#544F50"/>
<path transform="translate(1261,1034)" d="m0 0 3 1 1 3-2 3 1 4v7l-4 1v2l-2 1 26 15 8 5 3 1 1-3h1l1 6 18 11 16 8 25 14 27 16 8 5 1 32v144l1 3-11 6-28 16-17 10-15-8-29-17-21-12-24-14-52-30-13-8v-176l9-6 22-13 25-14 9-6z" fill="#C6A781"/>
<path transform="translate(830,698)" d="m0 0h3l-1 18v277l-64 1-5 1-1 296h-35l-1-4v-104l1-38v-425l1-4h-20v-1h119l2-14z" fill="#282D2E"/>
<path transform="translate(842,1236)" d="m0 0h12l14 3 11 4 12 8 8 7 9 13 5 11 3 11 1 6v12l-3 15-5 11-6 10-6 7-10 8-16 8-11 4-7 1h-10l-16-2h-260l-107-1 4-3 17-9 12-11 9-14 5-15 1-5v-23l178-1h76v-46h1v46h18l2-10 7-14 11-13 11-8 10-5 13-4z" fill="#FAFAFA"/>
<path transform="translate(840,994)" d="m0 0h73l11 6 7 7 4 6 3 10 4 27 4 24 3 24h55l8 2 12 6 8 9 4 8 2 8v8h-10l3 38h10l4 52 1 7 3 49v7l-22 1-45-1-2-13-3-43-3-42-4-41-1-23-3-10-6-10-8-7-10-3-59-1-2-4-12-73-4-11-6-8-8-6-11-2z" fill="#282D2E"/>
<path transform="translate(1319,871)" d="m0 0h17l10 3 14 10 10 9 9 10 10 15 8 17 5 17 1 7v15l-4 16-5 13-9 17-6 12-5 8-11 17-8 12-12 6-13 8-4-4-7-16-12-29-5-12-3-7-3-9-9-24-9-26-6-25v-18l4-12 4-6 8-7 18-11z" fill="#A31A24"/>
<path transform="translate(842,1236)" d="m0 0h12l14 3 11 4 12 8 8 7 9 13 5 11 3 11 1 6v12l-3 15-5 11-6 10-6 7-10 8-16 8-11 4-7 1h-10l-16-2v-3l-9-3-14-9-11-11-8-14-4-11-2-12 1-18h-94v-1h76v-46h1v46h18l2-10 7-14 11-13 11-8 10-5 13-4z" fill="#7598B6"/>
<path transform="translate(316,1236)" d="m0 0h14l16 4 16 8 12 10 8 11 7 15 3 14v15l-4 16-7 14-9 11-10 8-16 8-11 4-7 1h-10l-15-3v-2l-6-1-14-8-10-9-7-8-7-14-4-13-1-6v-12l3-15 8-16 6-8 4-5 10-8 14-7 10-3z" fill="#7598B7"/>
<path transform="translate(1386,1017)" d="m0 0 1 2 3 1v2l5 2 22 12 24 14 26 15 21 13 2 2v177l-48 28-2-1v-175l-7-1-1-4-5-2-28-16-14-7h-4v-2h-2l-3-5v-2l-5-1-10-6-1-3 13-20 9-16z" fill="#C6A781"/>
<path transform="translate(204,715)" d="m0 0h504l20 1-1 48h-1l-1-22-521-1z" fill="#6F0B05"/>
<path transform="translate(204,741)" d="m0 0h521l1 1v23h-522z" fill="#A31924"/>
<path transform="translate(1261,1034)" d="m0 0 3 1 1 3-2 3 1 4v7l-4 1v2l-2 1 26 15 8 5 3 1 1-3h1l1 6 18 11 16 8 25 14 27 16 8 5v2l-24 14-22 13-10 5-26-15-28-16-24-14-52-30-18-10-3-4 13-8 43-25z" fill="#E1C494"/>
<path transform="translate(391,1292)" d="m0 0h116l2 2v21l-4 15-6 12-8 10-10 9-19 10-7 2h-30l-15-6-12-8-4-3-4 1-7 6-17 8-10 2h-15v-2l16-7 13-9 8-9 7-12 5-15 1-6z" fill="#282D2E"/>
<path transform="translate(915,1291)" d="m0 0 5 1h107l1 1v20l-3 14-8 16-7 9-10 9-17 9-9 3h-30l-13-5-14-9-4 1-14 8-10 4-6 1h-17v-2l16-7 10-7 6-5 8-11 6-12 3-11 1-7v-12z" fill="#282D2E"/>
<path transform="translate(1297,1009)" d="m0 0 2 1 3 10 4 8 2 6 12 29 8 18 2 1 17-10 5-3h3l2-5 3-3 13 8 3 1 3 4v3h2v2l4-1 16 8 26 15 5 3 2 3 4 3-4 4-10 4-7 3-16-9 15 9-5 4-14 9-3 1-1 21h-1l-1-22-21-12-22-13-20-11-12-6-18-11-2-6-1 2-5-1-13-8-21-12 4-1v-2l4-1-1-7-1-4 2-4-1-4 22-13 8-4h2v-2l2-1z" fill="#A2886E"/>
<path transform="translate(1407,591)" d="m0 0h3l-2 6-13 27-8 16-17 35-12 26-8 15-4 9-7 15-5 10-3-1-3-7-3-1h-9v-12l4-9 3-6 1-11-2-25v-25l2-9 2-7-6-4 1-5h2v-2l24-10 58-24z" fill="#6E0B05"/>
<path transform="translate(1296,1372)" d="m0 0h95l561 1 8 4 2 4h-61l-597-1h-211l-25-1-7-1v-1l7-1 17-1 100-2z" fill="#2B2F30"/>
<path transform="translate(1319,871)" d="m0 0h17l10 3 14 10 10 9 9 10 10 15 8 17 5 17 1 7v15l-4 16-5 13-9 17-6 12-5 8-11 17-8 12-12 6-10 6-2-1 6-10 11-17 12-21 9-19 6-18 1-5v-16l-3-15-6-16-8-15-8-11-9-10-9-8-13-8-12-5-8-2 3-5z" fill="#6F0D07"/>
<path transform="translate(1386,1017)" d="m0 0 1 2 3 1v2l5 2 22 12 24 14 26 15 21 13 1 2-22 13-24 14-4 1-5-3-7-3-28-16-14-7h-4v-2h-2l-3-5v-2l-5-1-10-6-1-3 13-20 9-16z" fill="#E1C494"/>
<path transform="translate(914,1358)" d="m0 0 4 1 9 6 8 4 9 3h30l5-1 110 1h207v1l-111 1-100 2-17 1v1l25 1h257l551 1v1l-882 1h-261l-187-1v-1l109-1 37-1 9-1-28-1-12-1v-2l67-1h78l12 2h10l13-2h17l12-3 15-8z" fill="#5D5D62"/>
<path transform="translate(788,1014)" d="m0 0h44l6 4 4 7 6 35 6 38-1 3h-65z" fill="#7599B8"/>
<path transform="translate(880,1013)" d="m0 0h28l17 1 3 8 12 75v2h-46l-2-8-12-71z" fill="#7599B8"/>
<path transform="translate(1127,643)" d="m0 0h2l-1 5-10 18-11 20-6 10-6 11-4 6-9 4-24 5h-10l-4-2-5-7v-34l18-8 66-26z" fill="#6F0C06"/>
<path transform="translate(882,1245)" d="m0 0h94l2 1 4 42v4l-65 1-3-5-5-13-7-12-6-7-12-9z" fill="#A21924"/>
<path transform="translate(319,1272)" d="m0 0h8l10 3 10 7 6 9 3 9v10l-4 11-6 8-9 6-9 3h-9l-10-3-9-6-6-7-4-13v-9l4-11 7-9 10-6z" fill="#E8DFCF"/>
<path transform="translate(843,1272)" d="m0 0h8l10 3 10 6 6 8 3 7 1 12-4 13-7 9-10 6-8 2h-8l-10-3-8-5-7-8-4-12v-10l4-11 6-8 11-7z" fill="#E8DFCF"/>
<path transform="translate(840,994)" d="m0 0h73l11 6 7 7 4 6 3 10 4 27 4 24 3 24h55l6 1v1l-57 1-3 1-10-3-2-8-11-69-2-7-45-2 14 84-1 2h-10l-2-4-12-73-4-11-6-8-8-6-11-2z" fill="#2B2F30"/>
<path transform="translate(1045,1236)" d="m0 0h1l3 49v7l-22 1-45-1-2-13-2-25v-9l66-1z" fill="#7498B7"/>
<path transform="translate(1183,1245)" d="m0 0h1l1 11 26 15 28 16 17 10 21 12 26 15 27 16 2 2v3l5 4 22-12 10-6 4 1-11 7-22 13-8 6-4-1-20-11-15-9-21-12-52-30-23-13-24-14-13-8v-3l20-11z" fill="#DBDFDF"/>
<path transform="translate(368,964)" d="m0 0h36l5 2 8 9v14l-1 2h-2l3 7 3 4v13l-4 7-7 6-3 1h-37l-1-1z" fill="#DBDDDC"/>
<path transform="translate(1195,1211)" d="m0 0 14 8 12 7 18 10 10 6 1 5 1 29 2 1-1-2v-30l6 2 20 12 1 1v34l-5-2-23-13-17-10-39-22z" fill="#38383A"/>
<path transform="translate(553,963)" d="m0 0 4 2 11 14 8 11v2l5-5 12-17 5-7h13v66h-13l-1-41-14 18-5 7-3-1-18-24-1 41h-14v-65z" fill="#DCDEDF"/>
<path transform="translate(321,963)" d="m0 0h17l5 12 17 50v4h-14l-4-10v-3h-25l-2 9-2 4h-14l1-7 4-12 4-10 12-36z" fill="#DBDCDB"/>
<path transform="translate(447,963)" d="m0 0h17l4 10 5 15 4 10 9 26v5h-14l-4-10v-3h-25l-1 5-3 8h-14l1-5 5-16 11-32 4-12z" fill="#DBDCDB"/>
<path transform="translate(641,963)" d="m0 0h18l4 10 9 29 4 10 3 9 1 8h-14l-4-11v-2h-25l-1 5-3 8h-14l1-4 13-40 5-15z" fill="#DADBDA"/>
<path transform="translate(1310,915)" d="m0 0h7l6 3 2 7 5 18 7 12 7 8 3 2v2l3 1-1 7-4 6-5 4-2 1h-7l-8-4-10-9-6-9-5-10-3-11v-14l4-8z" fill="#6E0B05"/>
<path transform="translate(1359,1061)" d="m0 0 9 5 8 4 3 4v3h2v2l4-1 16 8 26 15 5 3 2 3 4 3-4 4-10 4-7 3-23-13-19-11-5-2v-2h-5l-1-3-16-9 1-4h2l2-7z" fill="#A3886E"/>
<path transform="translate(1344,512)" d="m0 0 6 1 27 9v1l-7 2-36 14-31 13-3 1-4-4-8-5-1-6 16-8 25-11z" fill="#A46156"/>
<path transform="translate(1599,462)" d="m0 0 12 2 19 4-5 4-7 4-10 4h-2v2l-23 11-2 2-10 4-10 5h-3v2l-6 3-3-1-3-9 1-7 4-4 17-8 8-5 22-11z" fill="#E7DBC9"/>
<path transform="translate(245,963)" d="m0 0h15l7 11 6 11 3-4 10-17 1-1h14l-1 4-10 18-6 9-3 6-1 29h-13l-1-27-6-12-15-25z" fill="#DBDDDD"/>
<path transform="translate(764,1245)" d="m0 0h50l-5 4-11 9-8 11-6 12-3 10h-18v-45z" fill="#A31A24"/>
<path transform="translate(553,963)" d="m0 0 4 2 11 14 8 11v2l3-1v2l3 1-1 5-4 3-5-2-6-7-3-1h-3l-3-4-1 41h-14v-65z" fill="#D9DAD7"/>
<path transform="translate(997,568)" d="m0 0 3 1 17 45 7 19 4 11v6l-8 4h-3l-1 3-14-39-15-41-1-6z" fill="#E7DCCB"/>
<path transform="translate(494,963)" d="m0 0h13v55h28v11h-41z" fill="#DADAD7"/>
<path transform="translate(1413,630)" d="m0 0h9l9 7 4 6 5 16v20l-3 7-4-2-8-8-9-14-7-13-1-5v-9z" fill="#A31D27"/>
<path transform="translate(62,1373)" d="m0 0h62l5 1h25l46 1 2 3-2 1-31 1h-101l-16 1 2-4z" fill="#292E2F"/>
<path transform="translate(970,1139)" d="m0 0h20l1 1 2 26v12h-20l-1-2-2-23z" fill="#E4D7C6"/>
<path transform="translate(618,1374)" d="m0 0h68l12 1 28 1 1 2-10 1-37 1h-85l-48-1 1-2 38-2z" fill="#282D2E"/>
<path transform="translate(1292,1026)" d="m0 0 7 2 3 3 3 1 4 9h2l10 25-1 2-3-1v-3l-5-2-16-9-17-10-10-6 3-1 7 1 3-5z" fill="#A3846B"/>
<path transform="translate(225,836)" d="m0 0h263v2l-6 1h-227l-30-1z" fill="#B78072"/>
<path transform="translate(7,1119)" d="m0 0h143v4l-1 1h-149v-4z" fill="#B99073"/>
<path transform="translate(203,1089)" d="m0 0h1v103h-1v-48h-130l-1-4 13-1h118z" fill="#B28069"/>
<path transform="translate(466,691)" d="m0 0h1v22l356 1v1l-48 1-554-1v-1l243-1v-19z" fill="#D5C8B6"/>
<path transform="translate(1197,1215)" d="m0 0 11 6 10 6 1 2 1 28-6-2-17-10z" fill="#BC9C7A"/>
<path transform="translate(203,1210)" d="m0 0h1v8l-1-2h-126l-4-1-1-3 1-1z" fill="#AB7261"/>
<path transform="translate(1488,1102)" d="m0 0h2v155l-3 2-3-1v-3h2l-1-3v-98l1-36 1-10z" fill="#A3896F"/>
<path transform="translate(1226,1232)" d="m0 0 5 2 16 9 1 31-5-2-17-10z" fill="#D5B88D"/>
<path transform="translate(64,1191)" d="m0 0h86v4h-150v-3z" fill="#A96155"/>
<path transform="translate(598,964)" d="m0 0h12v17h-1l-1-9-1-3-5 1-6 5-5 8v4h5l-2 5-11 14-5 7-3-1-12-16-1-4 2-1 6 5 5 5 5-2 1-5-2-1 1-5 13-18z" fill="#F8F7F4"/>
<path transform="translate(1325,920)" d="m0 0 5 2 9 10 8 15 3 11v10l-3-1-5-5-8-10-5-9-4-15z" fill="#F6F3F0"/>
<path transform="translate(1254,1249)" d="m0 0 5 1 16 9 1 1v9l-2-2-4-7-4-4-7-1-3 5 5 2 4 4v13h-2l3 3 1-15 4 1 5 2v20l-5-2-16-9-1-3z" fill="#C1A27F"/>
<path transform="translate(1252,1245)" d="m0 0 6 2 20 12 1 1v34l-5-2-23-13v-3l2 1-1-2zm2 4v27l1 3 18 10 3 1v-20l-6-3h-3l-1 15-4-3v-2l1 2h2v-13l-5-5-4-1 3-5 7 1 7 8 2 5h1v-9l-13-8-6-3z" fill="#3E3B3C"/>
<path transform="translate(391,1355)" d="m0 0 4 1 15 10 12 5-2 2-55-1 3-3 16-8z" fill="#F0F0EE"/>
<path transform="translate(1412,627)" d="m0 0h10l6 3 7 8 5 10 3 11v22l-4 8-6-1-6-5-10-13-10-19-2-5v-12l5-6zm1 3-5 5v9l3 9 9 16 8 10 7 7 3-1 2-6v-20l-5-16-7-9-6-4z" fill="#ECE4D7"/>
<path transform="translate(381 1e3)" d="m0 0h20l5 4 1 2v6l-3 4h-3v2h-20z" fill="#74130D"/>
<path transform="translate(1297,1009)" d="m0 0 2 1 3 10 4 8 2 6 2 5-1 4-4-9v-2l-4-1-5-3-4-1-8 5h-2l-2 6h-6l-8-6 5-4 14-8 8-4h2v-2l2-1z" fill="#C6A681"/>
<path transform="translate(1028,1139)" d="m0 0h10l1 3 1 15v20h-9l-1-2-2-24z" fill="#E5DAC9"/>
<path transform="translate(914,1358)" d="m0 0 4 1 9 6 8 4 5 2v1h-49l1-2 16-8z" fill="#F5F5F6"/>
<path transform="translate(1227,615)" d="m0 0h6l4 4 2 4v8l-3 5-2 1h-7l-3-3-2-4v-10z" fill="#E5D9C6"/>
<path transform="translate(1286,593)" d="m0 0 5 1 5 5 1 2v8l-4 5-7 1-5-5-2-5v-6l4-5z" fill="#E6D9C6"/>
<path transform="translate(381,975)" d="m0 0h21v3h2v7l-4 4h-19z" fill="#771A12"/>
<path transform="translate(1399,547)" d="m0 0h6l5 5 1 4v8l-2 3-4 2h-6l-4-5-1-3v-9z" fill="#E5D9C6"/>
<path transform="translate(1343,571)" d="m0 0 6 1 4 4 1 3v10l-5 4h-6l-4-3-2-5v-9z" fill="#E7DBC8"/>
<path transform="translate(1509,507)" d="m0 0h9l3 4 1 3v10l-5 4h-6l-5-5-1-3v-8z" fill="#E6DAC7"/>
<path transform="translate(1255,607)" d="m0 0h9l3 4 1 3v10l-5 4h-6l-4-3-2-5v-8z" fill="#E7DBC9"/>
<path transform="translate(1372,560)" d="m0 0 6 1 4 5 1 3v7l-2 4-3 2h-6l-5-4-1-3v-10l4-4z" fill="#E7DBC9"/>
<path transform="translate(1310,583)" d="m0 0h8l4 5 1 4v7l-5 5h-7l-4-4-1-3v-10z" fill="#E7DCCA"/>
<path transform="translate(1455,528)" d="m0 0h6l5 5 1 3v8l-4 5h-7l-4-2-2-5v-10z" fill="#E6DAC7"/>
<path transform="translate(1482,515)" d="m0 0h8l4 4 1 3v9l-2 4-2 1h-8l-5-8v-8z" fill="#E7DBC8"/>
<path transform="translate(1426,539)" d="m0 0h7l4 5 1 3v8l-1 3-3 2h-8l-4-5-1-3v-8z" fill="#E7DBC8"/>
<path transform="translate(1261,1034)" d="m0 0 3 1 1 3-2 3 1 4v7l-4 1v2l-6 1-13-8 1-3z" fill="#C6A781"/>
<path transform="translate(1197,1215)" d="m0 0 2 1 2 6v19 3l15 8v-2h-2v-22l4-1 1 2 1 28-6-2-17-10z" fill="#BE9F7E"/>
<path transform="translate(60,1120)" d="m0 0h91l-1 3h-92z" fill="#A45F55"/>
<path transform="translate(641,964)" d="m0 0 4 1-1 5-3 9-2 12h-2l-3 9-6 13h-2l-2 11h-2v4h-2l2-9 12-36 4-13z" fill="#F7F6F4"/>
<path transform="translate(1221,1228)" d="m0 0 6 1 19 11 4 3-1 4-1 25h-1v-29l-5-2-16-9v27l-1 2-4-2-1-4v-25z" fill="#4A4342"/>
<path transform="translate(287,963)" d="m0 0h14l-1 4-10 18-6 9-1 3h-2l2-9 5-10 4-5-1-5-4 4-4 7-5 2 1-5 7-12z" fill="#F4F1ED"/>
<path transform="translate(571,910)" d="m0 0h80v3h-80z" fill="#B38779"/> 
<path transform="translate(328,979)" d="m0 0h2l7 20v5h-15l1-9z" fill="#791B14"/>
<path transform="translate(464,1369)" d="m0 0 3 1 150 1 4 2h-54l-107-1z" fill="#CFCEC7"/>
<path transform="translate(649,980)" d="m0 0 3 4 5 14v6h-15l1-8 3-9z" fill="#76140F"/>
<path transform="translate(455,980)" d="m0 0 2 1 5 14 1 9h-15l2-11z" fill="#751610"/>
<path transform="translate(1231,1238)" d="m0 0 8 4 3 2v15h-6l-5-4z" fill="#2B2F30"/>
<path transform="translate(1267,1267)" d="m0 0 4 1 5 2v20l-5-2-6-4z" fill="#C8A983"/>
<path transform="translate(1259,1254)" d="m0 0 7 1 8 9v5l-4-1-3-1v12l-1 3-4-2-1-4 2 1v2h2l-1-13-4-4-4-2 1-4z" fill="#313233"/>
<path transform="translate(446,964)" d="m0 0 5 1-1 4-4 11-9 24-3 1-1 2 1-8 8-23z" fill="#F4F2EF"/>
<path transform="translate(1202,1222)" d="m0 0 3 1 1 22 5 2-1-20 4 2 1 5-1 16h2v2l-6-2-9-5-1-3h2z" fill="#423434"/>
<path transform="translate(1413,657)" d="m0 0 4 5 7 11 9 10 4 2 2-6 1-14h1l1 19-3 5-6-1-6-5-10-13-6-12z" fill="#E3D5C1"/>
<path transform="translate(77,1213)" d="m0 0h7l2 1 117 1v1h-126l-4-2z" fill="#C7A882"/>
<path transform="translate(320,965)" d="m0 0h5l-11 29-3 7-2 5h-2l2-9z" fill="#FAF9F7"/>
<path transform="translate(462,963)" d="m0 0 3 1 8 24 4 10v6l-3-4-3-5-5-14-3-9-3-6v-2z" fill="#F5F5F3"/>
<path transform="translate(728,530)" d="m0 0h1l1 5 16 9-1 3-9-4-9-5-4 2-6 7h-3l2-5 4-5z" fill="#5F2724"/>
<path transform="translate(1243,1242)" d="m0 0 4 1 1 31-5-2-1-7v-22z" fill="#DEC193"/>
<path transform="translate(1352,1069)" d="m0 0 2 1-3 7-2 1v3l16 9 1 2-5-2-14-8-11-3 4-3z" fill="#815650"/>
<path transform="translate(1387,1312)" d="m0 0 3 1v2l-28 16-3-1 6-5 4-2 1-2h3v-2l10-6z" fill="#A88D71"/>
<path transform="translate(949,1098)" d="m0 0h55l6 1v1l-57 1-3 1z" fill="#64707D"/>
<path transform="translate(1297,1009)" d="m0 0 2 1 3 10 3 9-4-3-9-3-4-4 5-3h2v-2l2-1z" fill="#DFC396"/>
<path transform="translate(1254,1249)" d="m0 0 5 1 16 9 1 1v9l-2-2-4-7-4-4-7-1-3 5-1 16h-1z" fill="#B79477"/>
<path transform="translate(1478,1261)" d="m0 0 3 1-15 9-21 12-2-1 2-5 3-2 10-2 1-2h2v-2l13-5z" fill="#A98E72"/>
<path transform="translate(1364,1057)" d="m0 0 4 2 7 6 3 6-1 2-1-3-5-1-10-6-1-3 2-2z" fill="#C6A681"/>
<path transform="translate(1221,1228)" d="m0 0 3 3v29l-3-1-1-4v-25z" fill="#A3675A"/>
<path transform="translate(495,964)" d="m0 0 4 1-1 3-1 18v36l1 5-3 1-1-42z" fill="#FBFAFA"/>
<path transform="translate(1252,1245)" d="m0 0 6 2 9 5-2 2-11-5 1 10-1 19-2-3z" fill="#3B3A3B"/>
<path transform="translate(1202,1216)" d="m0 0 5 2 14 8 1 2-1 2v25h-2l-1-26-4-4-13-7z" fill="#434042"/>
<path transform="translate(1242,1245)" d="m0 0h1v20l-2 4-5-3v-2l-5-2v-3l5-1 6 1z" fill="#B99879"/>
<path transform="translate(1215,1227)" d="m0 0h3v25l-4-2v-22z" fill="#D7B98D"/>
<path transform="translate(1206,1223)" d="m0 0h1l1 7 2-1 1 3v15l-5-1z" fill="#D6B98D"/>
<path transform="translate(662,977)" d="m0 0 3 2 6 20 2 9-3-4v-3h-2l-4-9-3-12z" fill="#F5F4F3"/>
<path transform="translate(1276,1271)" d="m0 0h1v20l-2 2-25-15 1-2h3l1 3 6 2 15 9z" fill="#484241"/>
<path transform="translate(1195,1211)" d="m0 0 7 4v2l-4-1v31h-3z" fill="#2B2F30"/>
<path transform="translate(247,964)" d="m0 0 4 1 3 10 8 13 5 10-1 2-15-25-4-7z" fill="#F1ECE5"/>
<path transform="translate(1440,665)" d="m0 0h1l1 19-3 5-6-1-6-5 3-3 5 5h2l2-6z" fill="#E1D2BF"/>
<path transform="translate(687,522)" d="m0 0 11 2 9 3v3l-9-1-11-3z" fill="#645856"/>
<path transform="translate(975,511)" d="m0 0 4 2 11 9 2 3v3l-4-2-8-7-5-5z" fill="#6C342F"/>
<path transform="translate(860,473)" d="m0 0h14l6 1v3h-20z" fill="#6E6869"/>
<path transform="translate(1407,633)" d="m0 0h1l2 16 3 6v3l-3-1-5-11v-12z" fill="#EDE4D6"/>
<path transform="translate(452,982)" d="m0 0h1l-1 8-3 11-3 2v-10l3-9z" fill="#F5F1EF"/>
<path transform="translate(762,555)" d="m0 0 5 2 12 11v3l-5-2-12-11z" fill="#5D4A4A"/>
<path transform="translate(1210,1227)" d="m0 0 4 2 1 5-1 15-4-2z" fill="#50494B"/>
<path transform="translate(72,1212)" d="m0 0h21l3 1 21 1v1h-33l-3-1h-8z" fill="#A3886E"/>
<path transform="translate(1369,1331)" d="m0 0 4 1-11 7-14 8-3-1 4-2 4-4z" fill="#E2DFD6"/>
<path transform="translate(619,522)" d="m0 0h7v3l-17 4h-4l1-4z" fill="#575455"/>
<path transform="translate(760,505)" d="m0 0h3l-2 4-14 10h-2l1-4 9-7z" fill="#623E3B"/>
<path transform="translate(1298,1081)" d="m0 0 5 2 13 8 7 4v1l-7-1-12-7z" fill="#C7A882"/>
<path transform="translate(647,980)" d="m0 0 1 4-3 11-3 6-2-2 1-11 3-4h2z" fill="#F6F5F4"/>
<path transform="translate(797,486)" d="m0 0h2l-1 4-11 5-4 2h-3l1-4z" fill="#5D4846"/>
<path transform="translate(1249,1247)" d="m0 0 3 1 1 29-3-1z" fill="#998C80"/>
<path transform="translate(413,995)" d="m0 0 3 1 4 6v13l-3 2-1-2 1-5-3-11z" fill="#F0EAE4"/>
<path transform="translate(837,475)" d="m0 0h2l-1 4-15 3h-4v-3z" fill="#524F52"/>
<path transform="translate(1198,1216)" d="m0 0 3 6v19l-3 1z" fill="#E2C595"/>
<path transform="translate(940,490)" d="m0 0 16 8 3 2v3l-6-2-12-7z" fill="#473F40"/>
<path transform="translate(492,613)" d="m0 0h2l-1 5-8 15-3 1 1-5 7-13z" fill="#413B3D"/>
<path transform="translate(583,534)" d="m0 0h3v3l-17 8h-2l1-4z" fill="#4E474B"/>
<path transform="translate(1439,654)" d="m0 0 3 1 1 4v22h-2l-1-16z" fill="#F1EAE0"/>
<path transform="translate(792,583)" d="m0 0 4 2 8 10 2 3-1 4-7-8-5-7z" fill="#3A3D40"/>
<path transform="translate(701,561)" d="m0 0h2l-1 4-6 10-4 5h-2l2-6 8-12z" fill="#522D2C"/>
<path transform="translate(646,519)" d="m0 0h20l1 2-1 2-20-1z" fill="#4C4C50"/>
<path transform="translate(901,477)" d="m0 0 17 4 3 2v2l-7-1-12-3z" fill="#464545"/>
<path transform="translate(1228,1233)" d="m0 0 16 8-2 3-5-2-5-3-1 12h-1v-16h-2z" fill="#BC9978"/>
<path transform="translate(665,678)" d="m0 0 3 1 2 12v8l-3-1-2-12z" fill="#393A3C"/>
<path transform="translate(517,581)" d="m0 0 2 1-4 7-9 10h-2l1-4 9-11z" fill="#383537"/>
<path transform="translate(547,554)" d="m0 0h3l-2 4-9 8-6 2 2-4 7-6z" fill="#5C3633"/>
<path transform="translate(466,691)" d="m0 0h1v22h-3v-19z" fill="#563C3E"/>
<path transform="translate(1498,1257)" d="m0 0h2l-1 3-27 15h-2v-2l22-12z" fill="#E0D9CE"/>
<path transform="translate(829,657)" d="m0 0 3 1 1 8v12h-3z" fill="#454345"/>
<path transform="translate(680,597)" d="m0 0h2l-1 6-6 15h-2l1-6 5-14z" fill="#434045"/>
<path transform="translate(895,1369)" d="m0 0 3 1h41l1 2h-49l1-2z" fill="#DED7CC"/>
<path transform="translate(474,651)" d="m0 0h2l-1 7-4 14h-3l4-16z" fill="#39393A"/>
<path transform="translate(668,636)" d="m0 0 2 1-2 20-3 1v-9l2-12z" fill="#3D383A"/>
<path transform="translate(729,535)" d="m0 0 16 8v4l-9-4-4-2-3-3z" fill="#614E4A"/>
<path transform="translate(816,618)" d="m0 0 3 3 6 13v5h-2l-7-17z" fill="#3A3B3D"/>
<path transform="translate(1248,1245)" d="m0 0h1l1 10v22l-3-1z" fill="#363738"/>
<path transform="translate(326,981)" d="m0 0h1l-1 8-5 14h-1l-1-6 3-10 3-3z" fill="#F9F8F6"/>
<path transform="translate(1198,1246)" d="m0 0 5 2 15 8-1 3-20-11z" fill="#3A393A"/>
<path transform="translate(1225,1233)" d="m0 0h1v26l-1 2-2-1v-19z" fill="#4E484A"/>
<path transform="translate(412,971)" d="m0 0 3 1 2 3v14l-3 1-1-11z" fill="#EFEBE7"/>
<path transform="translate(341,978)" d="m0 0h3l4 11 1 9-3-3-2-4-1-7z" fill="#ECE6E1"/>
<path transform="translate(1448,1275)" d="m0 0h7l-1 3-9 5-2-1 2-5z" fill="#A68C70"/>
<path transform="translate(1221,1228)" d="m0 0 3 3v10l-3 2-1-2v-11z" fill="#A36F5F"/>
<path transform="translate(267 1e3)" d="m0 0h1l1 17 1 10h-3z" fill="#FCFCFC"/>
<path transform="translate(564,977)" d="m0 0 4 2 5 7v3h-2v-2h-3v-3l-3-1z" fill="#EDE6E1"/>
<path transform="translate(495,964)" d="m0 0 4 1-1 3-1 15-2 1z" fill="#FCFCFC"/>
<path transform="translate(1412,627)" d="m0 0h10l-1 3-10 2-3 3-2-1 2-4z" fill="#DBCAB4"/>
<path transform="translate(430,1014)" d="m0 0h1v13l-5 1 1-7z" fill="#F9F9F7"/>
<path transform="translate(1232,1260)" d="m0 0h5l5 5-1 4-5-3v-2l-4-1z" fill="#633E3C"/>
<path transform="translate(337,964)" d="m0 0h2l3 9v2h-3l-3-5v-5z" fill="#F4F2EF"/>
<path transform="translate(723,535)" d="m0 0m-1 1m-2 1 2 1v3l-5 6h-3l2-5z" fill="#6C433E"/>
<path transform="translate(1374,1038)" d="m0 0h2l-1 5h-2l-2 5-6 8v-3z" fill="#E1D1B8"/>
<path transform="translate(1378,1073)" d="m0 0 6 2 8 5-2 1-7-2h-2v-2h-2z" fill="#C7A882"/>
<path transform="translate(655,964)" d="m0 0h5l1 9h-2l-4-7z" fill="#F6F4F1"/>
<path transform="translate(247,964)" d="m0 0 4 1 2 10h-2l-4-7z" fill="#F7F5F3"/>
<path transform="translate(1218,1257)" d="m0 0h3l4 4 1-2 1 3 4 2v2l-6-2-7-4z" fill="#323436"/>
<path transform="translate(1369,1331)" d="m0 0 4 1-11 7-1-3z" fill="#DFD9CF"/>
<path transform="translate(1440,665)" d="m0 0h1l1 19-2 2v-2l-2-1 1-4z" fill="#DAC5A8"/>
<path transform="translate(1210,1227)" d="m0 0 4 2 1 5-4 1z" fill="#403A3B"/>
<path transform="translate(1228,1233)" d="m0 0 5 2 1 4h-2l-1 12h-1v-16h-2z" fill="#C1A37F"/>
<path transform="translate(970,1140)" d="m0 0h5l-1 5-3 4z" fill="#F9F7F5"/>
<path transform="translate(1439,654)" d="m0 0 3 1v12l-2-2z" fill="#F4EFE9"/>
<path transform="translate(517,581)" d="m0 0 2 1-4 7h-3v-3z" fill="#532E2C"/>
<path transform="translate(1250,1276)" d="m0 0h4l1 3 6 2-1 3-10-6z" fill="#464041"/>
<path transform="translate(1309,1059)" d="m0 0h6l4 5v2h-2v-2l-5-2z" fill="#4F494B"/>
<path transform="translate(675,1015)" d="m0 0 2 2 2 4v7l-3-3z" fill="#F4F3F2"/>
<path transform="translate(1272,1259)" d="m0 0 4 1v9l-2-2-2-4z" fill="#DAC29E"/>
<path transform="translate(668,636)" d="m0 0 2 1-1 10-3-1 1-9z" fill="#44474B"/>
<path transform="translate(675,608)" d="m0 0 3 1-3 9h-2l1-6z" fill="#563132"/>
<path transform="translate(693,572)" d="m0 0h4l-2 4-3 4h-2l2-6z" fill="#502F2E"/>
<path transform="translate(975,511)" d="m0 0 4 2 3 3-4 2-3-4z" fill="#675755"/>
</svg>
